# xmcd
#
# Track frame offsets:
# 182
# 21100
# 41865
# 60517
# 83975
# 105537
# 124045
# 152140
# 173392
# 196017
# 218290
# 243030
# 271980
# 294007
#
# Disc length: 4229 seconds
#
#
# Revision: 16
# Processed by: cddbd v1.5.2PL0 Copyright (c) Steve Scherf et al.
# Submitted via: FreeRIP 2.96 
#
DISCID=a710830e
DTITLE=2Pac - All Eyez On Me (Book 1)
DYEAR=1996
DGENRE=Rap
TTITLE0=Ambitionz Az A Ridah
TTITLE1=All Bout U (feat. Snoop Doggy Dogg, Nate Dogg and Dru Down)
TTITLE2=Skandalouz (feat. Nate Dogg)
TTITLE3=Got My Mind Made Up (feat. Dat Nigga Daz, Kurupt, Redman and Method Man)
TTITLE4=How Do U Want It (feat. KC and JoJo)
TTITLE5=2 Of Amerikaz Most Wanted (feat. Snoop Doggy Dogg)
TTITLE6=No More Pain
TTITLE7=Heartz Of Men
TTITLE8=Life Goes On
TTITLE9=Only God Can Judge Me (feat. Rappin' 4-Tay)
TTITLE10=Trading War Stories (feat. Dramacydal, C-Bo and Storm)
TTITLE11=California Love (Remix) (feat. Dr. Dre and Roger Troutman)
TTITLE12=I Ain't Mad At Cha (feat. Danny Boy)
TTITLE13=What'z Ya Phone # (feat. Danny Boy)
EXTD=
EXTT0=
EXTT1=
EXTT2=
EXTT3=
EXTT4=
EXTT5=
EXTT6=
EXTT7=
EXTT8=
EXTT9=
EXTT10=
EXTT11=
EXTT12=
EXTT13=
PLAYORDER=
